<svg width="320" height="50" viewBox="0 0 320 50" fill="none" xmlns="http://www.w3.org/2000/svg">
<path d="M9.376 4.328V49H0.416V4.328H9.376ZM35.8285 13.288C40.0952 13.288 43.5512 14.5893 46.1965 17.192C48.8418 19.752 50.1645 23.464 50.1645 28.328V49H44.4045V29.16C44.4045 25.6613 43.5298 22.9947 41.7805 21.16C40.0312 19.2827 37.6418 18.344 34.6125 18.344C31.5405 18.344 29.0872 19.304 27.2525 21.224C25.4605 23.144 24.5645 25.9387 24.5645 29.608V49H18.7405V13.928H24.5645V18.92C25.7165 17.128 27.2738 15.7413 29.2365 14.76C31.2418 13.7787 33.4392 13.288 35.8285 13.288ZM72.734 43.624L83.614 13.928H89.822L76.062 49H69.278L55.518 13.928H61.79L72.734 43.624ZM110.849 49.576C107.564 49.576 104.577 48.8293 101.889 47.336C99.2437 45.8427 97.153 43.7307 95.617 41C94.1237 38.2267 93.377 35.0267 93.377 31.4C93.377 27.816 94.145 24.6587 95.681 21.928C97.2597 19.1547 99.393 17.0427 102.081 15.592C104.769 14.0987 107.777 13.352 111.105 13.352C114.433 13.352 117.441 14.0987 120.129 15.592C122.817 17.0427 124.929 19.1333 126.465 21.864C128.044 24.5947 128.833 27.7733 128.833 31.4C128.833 35.0267 128.022 38.2267 126.401 41C124.822 43.7307 122.668 45.8427 119.937 47.336C117.206 48.8293 114.177 49.576 110.849 49.576ZM110.849 44.456C112.94 44.456 114.902 43.9653 116.737 42.984C118.572 42.0027 120.044 40.5307 121.153 38.568C122.305 36.6053 122.881 34.216 122.881 31.4C122.881 28.584 122.326 26.1947 121.217 24.232C120.108 22.2693 118.657 20.8187 116.865 19.88C115.073 18.8987 113.132 18.408 111.041 18.408C108.908 18.408 106.945 18.8987 105.153 19.88C103.404 20.8187 101.996 22.2693 100.929 24.232C99.8623 26.1947 99.329 28.584 99.329 31.4C99.329 34.2587 99.841 36.6693 100.865 38.632C101.932 40.5947 103.34 42.0667 105.089 43.048C106.838 43.9867 108.758 44.456 110.849 44.456ZM139.499 8.232C138.389 8.232 137.451 7.848 136.683 7.08C135.915 6.312 135.531 5.37333 135.531 4.264C135.531 3.15466 135.915 2.216 136.683 1.448C137.451 0.679998 138.389 0.295998 139.499 0.295998C140.565 0.295998 141.461 0.679998 142.187 1.448C142.955 2.216 143.339 3.15466 143.339 4.264C143.339 5.37333 142.955 6.312 142.187 7.08C141.461 7.848 140.565 8.232 139.499 8.232ZM142.315 13.928V49H136.491V13.928H142.315ZM150.065 31.4C150.065 27.7733 150.79 24.616 152.241 21.928C153.691 19.1973 155.697 17.0853 158.257 15.592C160.859 14.0987 163.825 13.352 167.153 13.352C171.462 13.352 175.003 14.3973 177.777 16.488C180.593 18.5787 182.449 21.48 183.345 25.192H177.073C176.475 23.0587 175.302 21.3733 173.553 20.136C171.846 18.8987 169.713 18.28 167.153 18.28C163.825 18.28 161.137 19.432 159.089 21.736C157.041 23.9973 156.017 27.2187 156.017 31.4C156.017 35.624 157.041 38.888 159.089 41.192C161.137 43.496 163.825 44.648 167.153 44.648C169.713 44.648 171.846 44.0507 173.553 42.856C175.259 41.6613 176.433 39.9547 177.073 37.736H183.345C182.406 41.32 180.529 44.2 177.713 46.376C174.897 48.5093 171.377 49.576 167.153 49.576C163.825 49.576 160.859 48.8293 158.257 47.336C155.697 45.8427 153.691 43.7307 152.241 41C150.79 38.2693 150.065 35.0693 150.065 31.4ZM223.116 30.12C223.116 31.2293 223.052 32.4027 222.924 33.64H194.892C195.105 37.096 196.278 39.8053 198.412 41.768C200.588 43.688 203.212 44.648 206.284 44.648C208.801 44.648 210.892 44.072 212.556 42.92C214.262 41.7253 215.457 40.1467 216.14 38.184H222.412C221.473 41.5547 219.596 44.3067 216.78 46.44C213.964 48.5307 210.465 49.576 206.284 49.576C202.956 49.576 199.969 48.8293 197.324 47.336C194.721 45.8427 192.673 43.7307 191.18 41C189.686 38.2267 188.94 35.0267 188.94 31.4C188.94 27.7733 189.665 24.5947 191.116 21.864C192.566 19.1333 194.593 17.0427 197.196 15.592C199.841 14.0987 202.87 13.352 206.284 13.352C209.612 13.352 212.556 14.0773 215.116 15.528C217.676 16.9787 219.638 18.984 221.004 21.544C222.412 24.0613 223.116 26.92 223.116 30.12ZM217.1 28.904C217.1 26.6853 216.609 24.7867 215.628 23.208C214.646 21.5867 213.302 20.3707 211.596 19.56C209.932 18.7067 208.076 18.28 206.028 18.28C203.084 18.28 200.566 19.2187 198.476 21.096C196.428 22.9733 195.254 25.576 194.956 28.904H217.1ZM278.995 4.328V49H270.035V19.944L258.067 49H251.283L239.251 19.944V49H230.291V4.328H240.467L254.675 37.544L268.883 4.328H278.995ZM303.278 49.448C300.163 49.448 297.347 48.9147 294.83 47.848C292.355 46.7813 290.392 45.2453 288.942 43.24C287.491 41.2347 286.744 38.8667 286.702 36.136H296.302C296.43 37.9707 297.07 39.4213 298.222 40.488C299.416 41.5547 301.038 42.088 303.086 42.088C305.176 42.088 306.819 41.5973 308.014 40.616C309.208 39.592 309.806 38.2693 309.806 36.648C309.806 35.3253 309.4 34.2373 308.59 33.384C307.779 32.5307 306.755 31.8693 305.518 31.4C304.323 30.888 302.659 30.3333 300.526 29.736C297.624 28.8827 295.256 28.0507 293.422 27.24C291.63 26.3867 290.072 25.128 288.75 23.464C287.47 21.7573 286.83 19.496 286.83 16.68C286.83 14.0347 287.491 11.7307 288.814 9.768C290.136 7.80533 291.992 6.312 294.382 5.288C296.771 4.22133 299.502 3.688 302.574 3.688C307.182 3.688 310.915 4.81867 313.774 7.08C316.675 9.29866 318.275 12.4133 318.574 16.424H308.718C308.632 14.888 307.971 13.6293 306.734 12.648C305.539 11.624 303.939 11.112 301.934 11.112C300.184 11.112 298.776 11.56 297.71 12.456C296.686 13.352 296.174 14.6533 296.174 16.36C296.174 17.5547 296.558 18.5573 297.326 19.368C298.136 20.136 299.118 20.776 300.27 21.288C301.464 21.7573 303.128 22.312 305.262 22.952C308.163 23.8053 310.531 24.6587 312.366 25.512C314.2 26.3653 315.779 27.6453 317.102 29.352C318.424 31.0587 319.086 33.2987 319.086 36.072C319.086 38.4613 318.467 40.68 317.229 42.728C315.992 44.776 314.179 46.4187 311.79 47.656C309.4 48.8507 306.563 49.448 303.278 49.448Z" fill="white"/>
</svg>
