<svg width="108" height="47" viewBox="0 0 108 47" fill="none" xmlns="http://www.w3.org/2000/svg">
<path d="M9.376 1.328V46H0.416V1.328H9.376ZM66.9325 1.328V46H57.9725V16.944L46.0045 46H39.2205L27.1885 16.944V46H18.2285V1.328H28.4045L42.6125 34.544L56.8205 1.328H66.9325ZM91.215 46.448C88.1003 46.448 85.2843 45.9147 82.767 44.848C80.2923 43.7813 78.3297 42.2453 76.879 40.24C75.4283 38.2347 74.6817 35.8667 74.639 33.136H84.239C84.367 34.9707 85.007 36.4213 86.159 37.488C87.3537 38.5547 88.975 39.088 91.023 39.088C93.1137 39.088 94.7563 38.5973 95.951 37.616C97.1457 36.592 97.743 35.2693 97.743 33.648C97.743 32.3253 97.3377 31.2373 96.527 30.384C95.7163 29.5307 94.6923 28.8693 93.455 28.4C92.2603 27.888 90.5963 27.3333 88.463 26.736C85.5617 25.8827 83.1937 25.0507 81.359 24.24C79.567 23.3867 78.0097 22.128 76.687 20.464C75.407 18.7573 74.767 16.496 74.767 13.68C74.767 11.0347 75.4283 8.73066 76.751 6.768C78.0737 4.80533 79.9297 3.312 82.319 2.288C84.7083 1.22133 87.439 0.688 90.511 0.688C95.119 0.688 98.8523 1.81867 101.711 4.08C104.612 6.29866 106.212 9.41333 106.511 13.424H96.655C96.5697 11.888 95.9083 10.6293 94.671 9.648C93.4763 8.624 91.8763 8.112 89.871 8.112C88.1217 8.112 86.7137 8.56 85.647 9.456C84.623 10.352 84.111 11.6533 84.111 13.36C84.111 14.5547 84.495 15.5573 85.263 16.368C86.0737 17.136 87.055 17.776 88.207 18.288C89.4017 18.7573 91.0657 19.312 93.199 19.952C96.1003 20.8053 98.4683 21.6587 100.303 22.512C102.138 23.3653 103.716 24.6453 105.039 26.352C106.362 28.0587 107.023 30.2987 107.023 33.072C107.023 35.4613 106.404 37.68 105.167 39.728C103.93 41.776 102.116 43.4187 99.727 44.656C97.3377 45.8507 94.5003 46.448 91.215 46.448Z" fill="white"/>
</svg>
